<svg width="40" height="40" viewBox="0 0 40 40" fill="none" xmlns="http://www.w3.org/2000/svg">
<mask id="mask0_53_1639" style="mask-type:alpha" maskUnits="userSpaceOnUse" x="0" y="0" width="40" height="40">
<rect width="40" height="40" fill="#D9D9D9"/>
</mask>
<g mask="url(#mask0_53_1639)">
<path d="M8.05542 7.77792C7.65737 7.77792 7.32639 7.64597 7.06251 7.38208C6.79862 7.11819 6.66667 6.78708 6.66667 6.38875C6.66667 5.9907 6.79862 5.65972 7.06251 5.39583C7.32639 5.13194 7.65737 5 8.05542 5H31.9446C32.3426 5 32.6736 5.13194 32.9375 5.39583C33.2014 5.65972 33.3333 5.9907 33.3333 6.38875C33.3333 6.78708 33.2014 7.11819 32.9375 7.38208C32.6736 7.64597 32.3426 7.77792 31.9446 7.77792H8.05542ZM20 35C19.6019 35 19.271 34.8681 19.0071 34.6042C18.7432 34.3403 18.6113 34.0093 18.6113 33.6112V15.8888L14.7779 19.7221C14.5093 19.9907 14.1806 20.125 13.7917 20.125C13.4028 20.125 13.074 19.9907 12.8054 19.7221C12.5371 19.4537 12.4029 19.1251 12.4029 18.7363C12.4029 18.3474 12.5371 18.0186 12.8054 17.75L19.0279 11.5279C19.176 11.3796 19.3288 11.2754 19.4863 11.2154C19.6435 11.1551 19.8147 11.125 20 11.125C20.1853 11.125 20.3565 11.1551 20.5138 11.2154C20.6713 11.2754 20.824 11.3796 20.9721 11.5279L27.0554 17.6112C27.324 17.8796 27.4583 18.2082 27.4583 18.5971C27.4583 18.986 27.324 19.3147 27.0554 19.5833C26.7871 19.8519 26.4631 19.9908 26.0833 20C25.7036 20.0092 25.3796 19.8796 25.1113 19.6113L21.3888 15.8888V33.6112C21.3888 34.0093 21.2568 34.3403 20.9929 34.6042C20.729 34.8681 20.3981 35 20 35Z" fill="#1C1B1F"/>
</g>
</svg>
